<?xml version="1.0" encoding="utf-8"?>
<svg width="290.625" height="117.773" viewBox="0 0 290.625 117.773" fill="none" xmlns="http://www.w3.org/2000/svg">
  <g transform="translate(-0.001 0)">
    <g>
      <path d="M0 112.103C1.708 76.32 25.966 43.952 20.709 7.39799C20.351 4.909 19.734 2.467 19.278 0C19.278 0 36.45 0 36.45 0C36.331 0.244003 36.285 0.442993 36.278 0.720001C35.887 16.398 39.555 30.619 45.076 45.076C48.535 54.133 53.028 63.067 55.933 72.289C56.224 73.216 56.814 76.312 57.305 76.793C57.979 77.453 60.237 77.504 60.904 76.861C61.597 76.193 61.441 73.272 61.56 72.171C62.319 65.143 63.927 58.72 66.254 52.079C70.832 39.019 74.447 31.715 73.222 17.092C72.739 11.312 71.353 5.60699 69.983 0C69.983 0 100.115 0 100.115 0C99.819 8.61701 97.249 17.113 94.448 25.194C84.894 52.762 67.633 82.558 73.113 112.781C73.367 114.186 73.774 115.561 74.033 116.963C74.033 116.963 57.104 116.963 57.104 116.963C56.567 116.388 57.01 115.5 57.031 114.784C57.616 94.979 49.651 67.994 42.033 49.739C40.452 45.948 37.68 39.086 35.15 36.048C34.876 35.718 34.202 34.945 33.785 34.983C33.054 35.049 32.266 37.883 32.033 38.594C29.449 46.469 27.61 54.837 25.153 62.818C20.448 78.097 13.885 93.329 15.391 109.753C15.629 112.345 16.272 114.889 16.686 117.449C16.686 117.449 1.52588e-05 117.449 1.52588e-05 117.449C1.52588e-05 117.449 0 112.103 0 112.103Z" fill="#0C161B" transform="translate(0 0.324)" />
      <path d="M69.2488 71.927C69.0488 68.037 67.5868 64.054 66.2928 60.385C63.3768 52.122 55.9998 34.42 49.6488 28.752C46.3898 25.843 43.8838 27.142 41.1398 29.967C34.5058 36.799 29.1558 53.552 27.0458 62.853C26.3748 65.81 25.6698 68.891 25.6708 71.927C25.6708 71.927 69.2488 71.927 69.2488 71.927ZM56.7748 1.52588e-05C57.1518 9.11002 59.4838 18.156 62.0778 26.853C68.9588 49.921 79.4368 71.97 85.7268 95.22C87.6358 102.276 89.2958 109.623 89.4988 116.963C89.4988 116.963 72.8128 116.963 72.8128 116.963C72.8898 114.344 72.9058 111.72 72.9678 109.099C73.1668 100.785 73.7568 90.374 71.9238 82.293C71.6188 80.951 70.9568 78.108 69.3338 77.917C67.5158 77.704 65.0808 77.97 63.1668 77.928C55.0798 77.75 46.9738 77.819 38.8668 77.767C34.5308 77.739 29.9218 77.221 25.5828 77.59C24.4698 77.685 24.3218 78.399 24.2148 79.462C23.9848 81.751 24.5368 85.048 24.8878 87.371C26.3898 97.308 29.2708 107.193 31.6038 116.952C31.6038 116.952 31.4218 117.287 31.4218 117.287C31.4218 117.287 1.53381 117.287 1.53381 117.287C-3.04718 99.572 3.38181 81.426 10.9518 65.551C16.5768 53.757 23.4448 42.605 29.3198 30.945C34.1768 21.305 38.9148 10.943 39.6028 0C39.6028 0 56.7748 1.52588e-05 56.7748 1.52588e-05Z" fill="#0C161B" transform="translate(201.127 0)" />
      <path d="M64.0042 71.927C63.6602 66.841 62.3942 61.748 61.0072 56.861C58.8182 49.15 53.1412 32.696 46.3962 28.218C44.0422 26.655 42.5472 26.612 40.3502 28.428C34.2762 33.452 27.4082 49.571 24.5172 57.145C22.7152 61.865 20.8402 66.892 20.2642 71.927C20.2642 71.927 64.0042 71.927 64.0042 71.927ZM50.0722 0C50.3292 7.482 52.9292 14.857 55.8752 21.655C67.8452 49.277 94.2892 81.846 88.9012 113.429C88.6802 114.72 88.3152 115.988 88.1422 117.287C88.1422 117.287 58.0102 117.287 58.0102 117.287C59.6602 110.049 61.6392 102.884 63.1442 95.61C63.9952 91.495 64.9542 87.216 65.2992 83.023C65.3862 81.965 65.7142 78.158 64.6492 77.681C64.4442 77.589 64.2972 77.607 64.0952 77.587C59.9712 77.185 54.8392 77.738 50.6472 77.767C42.5932 77.822 34.5412 77.752 26.5082 77.928C24.5992 77.969 21.9542 77.674 20.1762 77.914C18.7392 78.108 18.0502 80.767 17.7522 81.969C15.6222 90.546 16.4652 102.475 16.6992 111.375C16.7462 113.156 16.6862 114.93 16.8362 116.694C16.8362 116.694 16.6192 116.963 16.6192 116.963C16.6192 116.963 0.258209 116.963 0.258209 116.963C-0.00779724 116.787 -0.000793457 116.529 0.000213623 116.235C0.0342102 110.102 2.18021 101.535 3.78722 95.544C8.46622 78.086 15.6792 61.16 21.7252 44.147C26.7862 29.91 31.8622 15.204 32.9002 0C32.9002 0 50.0722 0 50.0722 0Z" fill="#0C161B" transform="translate(81.47 0)" />
      <path d="M31.7493 1.52588e-05C31.6523 1.09502 31.4933 2.22702 31.4273 3.32301C30.9293 11.535 30.9583 20.4 31.9323 28.572C32.9523 37.133 36.1393 52.96 47.2123 53.143C57.7133 53.318 61.3673 40.022 62.8023 31.782C64.6173 21.351 64.4863 10.543 63.9873 1.52588e-05C63.9873 1.52588e-05 94.1183 1.52588e-05 94.1183 1.52588e-05C93.7333 9.38802 87.1753 16.859 81.2423 23.492C69.6743 36.423 58.6183 46.756 53.2523 64.027C47.8733 81.34 50.4753 100.055 56.0493 116.963C56.0493 116.963 38.8773 116.963 38.8773 116.963C40.9963 110.297 42.7703 103.431 43.5553 96.45C45.8983 75.618 40.2723 59.535 27.2093 43.663C22.4903 37.928 17.0703 32.847 12.0643 27.38C5.22432 19.911 -2.26569 10.958 0.645309 0C0.645309 0 31.7493 1.52588e-05 31.7493 1.52588e-05Z" fill="#0C161B" transform="translate(138.673 0.324)" />
    </g>
  </g>
</svg>